RWalking1_XZ.mot
version=1
datacolumns 20
datarows 57
range 2.280000 2.840000
inDegrees=yes
endheader
time	pelvis_tilt	pelvis_list	pelvis_rotation	hip_flexion_r	hip_adduction_r	hip_rotation_r	knee_angle_r	ankle_angle_r	hip_flexion_l	hip_adduction_l	hip_rotation_l	knee_angle_l	ankle_angle_l	pelvis_tx	pelvis_ty	pelvis_tz	lumbar_bending	lumbar_rotation	lumbar_extension
2.280000	-7.709730	-0.158419	1.612730	-7.323726	4.642015	-8.671304	1.929387	7.672152	34.529467	-2.213930	-1.557450	-14.162574	0.789338	0.842666	0.954212	0.005493	7.515530	0.668828	7.235183
2.290000	-7.542983	-0.393918	1.435096	-8.472377	4.897662	-8.592378	2.068490	8.163832	34.391732	-2.430712	-1.013935	-11.241054	1.130125	0.855770	0.951108	0.004890	7.714348	0.888741	7.120222
2.300000	-7.403552	-0.591702	1.243507	-9.543508	5.079256	-8.450296	2.095438	8.635123	34.255106	-2.659068	-0.544532	-8.708927	1.524748	0.868970	0.948109	0.004228	7.918171	1.077003	7.040953
2.310000	-7.294884	-0.737347	1.022421	-10.520974	5.166973	-8.258907	1.994273	9.065262	34.112339	-2.884252	-0.161686	-6.615584	1.939863	0.882249	0.945273	0.003488	8.150369	1.224134	6.992766
2.320000	-7.219764	-0.817613	0.765986	-11.388360	5.146479	-8.042449	1.749512	9.437501	33.961858	-3.080537	0.139800	-5.004184	2.334531	0.895590	0.942646	0.002660	8.418452	1.318668	6.965397
2.330000	-7.179924	-0.821153	0.478250	-12.132283	5.010413	-7.829062	1.349901	9.735591	33.806663	-3.215620	0.373738	-3.903859	2.658731	0.908982	0.940267	0.001742	8.712804	1.347249	6.947788
2.340000	-7.175524	-0.739051	0.170804	-12.745869	4.757755	-7.643777	0.790883	9.940533	33.650864	-3.257339	0.551702	-3.319392	2.852049	0.922435	0.938173	0.000737	9.011042	1.295379	6.932640
2.350000	-7.204888	-0.566374	-0.140503	-13.230023	4.393172	-7.502032	0.073788	10.031589	33.496673	-3.181111	0.676394	-3.222918	2.847997	0.935989	0.936396	-0.000348	9.285719	1.150329	6.919384
2.360000	-7.265223	-0.304938	-0.438352	-13.590628	3.927892	-7.404833	-0.798990	9.994099	33.344511	-2.976370	0.741736	-3.552406	2.587268	0.949704	0.934960	-0.001512	9.512199	0.906112	6.915530
2.370000	-7.353925	0.035043	-0.705972	-13.833314	3.380227	-7.337450	-1.829791	9.826115	33.195261	-2.649052	0.739576	-4.218365	2.034154	0.963648	0.933867	-0.002750	9.674553	0.567246	6.935755
2.380000	-7.467574	0.437336	-0.929242	-13.961204	2.772309	-7.273649	-3.027557	9.527538	33.049703	-2.217941	0.672298	-5.116585	1.184371	0.977877	0.933099	-0.004060	9.768747	0.147736	6.996129
2.390000	-7.599532	0.884230	-1.098652	-13.976240	2.124748	-7.184557	-4.404237	9.075600	32.905400	-1.707602	0.563706	-6.144426	0.065077	0.992414	0.932622	-0.005437	9.801852	-0.333316	7.106297
2.400000	-7.740878	1.358258	-1.210272	-13.878823	1.454724	-7.048349	-5.969262	8.413427	32.757004	-1.143710	0.456024	-7.217596	-1.261549	1.007244	0.932398	-0.006875	9.786919	-0.854594	7.267039
2.410000	-7.884205	1.841299	-1.266095	-13.665100	0.777167	-6.857653	-7.726473	7.465948	32.599812	-0.551695	0.392680	-8.282088	-2.693791	1.022324	0.932396	-0.008369	9.736516	-1.393137	7.473845
2.420000	-8.025477	2.314723	-1.273860	-13.325858	0.104961	-6.622664	-9.675266	6.171316	32.431178	0.044504	0.399647	-9.316320	-4.097784	1.037598	0.932599	-0.009921	9.658455	-1.924973	7.720641
2.430000	-8.161775	2.761464	-1.245951	-12.849388	-0.552421	-6.368886	-11.813920	4.504449	32.247562	0.624704	0.478570	-10.323249	-5.331027	1.053001	0.933010	-0.011532	9.555105	-2.426705	7.999522
2.440000	-8.288120	3.169212	-1.196981	-12.225511	-1.190697	-6.128930	-14.142539	2.482703	32.040617	1.175182	0.613658	-11.316373	-6.273819	1.068465	0.933645	-0.013209	9.425320	-2.878364	8.298259
2.450000	-8.398014	3.533642	-1.140245	-11.446140	-1.812260	-5.928856	-16.665283	0.164756	31.797123	1.691036	0.782767	-12.304861	-6.853800	1.083920	0.934519	-0.014953	9.266886	-3.267762	8.600322
2.460000	-8.487854	3.859947	-1.086202	-10.501332	-2.426172	-5.774589	-19.391639	-2.348589	31.502653	2.175555	0.962420	-13.282060	-7.054140	1.099291	0.935632	-0.016758	9.079836	-3.594512	8.889060
2.470000	-8.562377	4.161475	-1.045590	-9.373803	-3.045550	-5.647226	-22.334060	-4.919169	31.146565	2.635092	1.124654	-14.220063	-6.907151	1.114508	0.936966	-0.018606	8.871295	-3.871288	9.154447
2.480000	-8.635644	4.455732	-1.032464	-8.039805	-3.682159	-5.510244	-25.498985	-7.390115	30.724308	3.073844	1.235221	-15.072722	-6.478335	1.129515	0.938484	-0.020458	8.656689	-4.120724	9.396853
2.490000	-8.722635	4.758291	-1.060991	-6.483022	-4.339326	-5.323335	-28.873040	-9.610636	30.233091	3.493037	1.262465	-15.787411	-5.845578	1.144269	0.940141	-0.022270	8.452153	-4.367272	9.621906
2.500000	-8.826667	5.075748	-1.138248	-4.713428	-5.005795	-5.056860	-32.411599	-11.457448	29.665015	3.892705	1.191974	-16.321736	-5.080702	1.158742	0.941892	-0.023994	8.262916	-4.626364	9.830167
2.510000	-8.935021	5.401433	-1.259613	-2.773966	-5.654957	-4.703183	-36.037185	-12.848156	29.007253	4.272965	1.034248	-16.657529	-4.241243	1.172907	0.943705	-0.025597	8.077606	-4.897328	10.012591
2.520000	-9.027912	5.716314	-1.409379	-0.727975	-6.251216	-4.281034	-39.650372	-13.736889	28.251672	4.633873	0.818227	-16.805030	-3.374741	1.186756	0.945569	-0.027058	7.872330	-5.164043	10.156886
2.530000	-9.092124	5.992270	-1.565068	1.362441	-6.758134	-3.830548	-43.147726	-14.104225	27.404932	4.972098	0.576388	-16.796336	-2.526794	1.200299	0.947495	-0.028374	7.620366	-5.399479	10.257690
2.540000	-9.127852	6.195263	-1.702771	3.452027	-7.142952	-3.401384	-46.437144	-13.966452	26.489786	5.275062	0.333158	-16.673229	-1.740905	1.213559	0.949504	-0.029555	7.300795	-5.569655	10.320625
2.550000	-9.147360	6.290925	-1.801575	5.517262	-7.380083	-3.040392	-49.446472	-13.392172	25.538462	5.519046	0.100158	-16.474824	-1.050768	1.226560	0.951606	-0.030621	6.902746	-5.639217	10.359283
2.560000	-9.169614	6.254004	-1.846699	7.553701	-7.457206	-2.783511	-52.126775	-12.497235	24.583792	5.675405	-0.124770	-16.228881	-0.473597	1.239318	0.953786	-0.031594	6.425493	-5.580723	10.389590
2.570000	-9.212732	6.077476	-1.831688	9.568024	-7.380750	-2.651253	-54.451479	-11.415210	23.650892	5.720907	-0.355655	-15.949380	-0.008517	1.251836	0.956008	-0.032498	5.875841	-5.383854	10.423570
2.580000	-9.285879	5.776617	-1.759647	11.566854	-7.176717	-2.645944	-56.411803	-10.260528	22.750588	5.646454	-0.613126	-15.640144	0.359753	1.264114	0.958213	-0.033348	5.264787	-5.059834	10.463583
2.590000	-9.384295	5.385690	-1.643411	13.547125	-6.885505	-2.751233	-58.009605	-9.104415	21.876721	5.460228	-0.916853	-15.301123	0.653257	1.276147	0.960344	-0.034148	4.605916	-4.638534	10.499757
2.600000	-9.490986	4.947184	-1.504832	15.493026	-6.550162	-2.934911	-59.248984	-7.977221	21.009596	5.182711	-1.278401	-14.933834	0.892498	1.287937	0.962354	-0.034895	3.916565	-4.158046	10.513659
2.610000	-9.584622	4.498486	-1.372285	17.380219	-6.202156	-3.155659	-60.129331	-6.890350	20.124890	4.836879	-1.696851	-14.544402	1.091586	1.299509	0.964222	-0.035584	3.219454	-3.651589	10.487412
2.620000	-9.649139	4.063963	-1.274604	19.183639	-5.854378	-3.372815	-60.643339	-5.857514	19.203861	4.442231	-2.158791	-14.143746	1.258877	1.310917	0.965947	-0.036206	2.540741	-3.139741	10.413671
2.630000	-9.679592	3.656099	-1.232080	20.883636	-5.506678	-3.556691	-60.780857	-4.898927	18.239559	4.017218	-2.643655	-13.744841	1.400441	1.322243	0.967541	-0.036757	1.903380	-2.631715	10.301047
2.640000	-9.680379	3.281891	-1.248892	22.466811	-5.157748	-3.697230	-60.536145	-4.026782	17.235383	3.585198	-3.132273	-13.358079	1.522332	1.333585	0.969012	-0.037235	1.319333	-2.131989	10.171097
2.650000	-9.658442	2.948076	-1.311832	23.923760	-4.813084	-3.806145	-59.913639	-3.231619	16.198359	3.175988	-3.613990	-12.986204	1.631353	1.345028	0.970364	-0.037638	0.786046	-1.646199	10.049257
2.660000	-9.617973	2.661758	-1.396229	25.247821	-4.484473	-3.908477	-58.928474	-2.486817	15.132957	2.820735	-4.088406	-12.620167	1.736367	1.356618	0.971592	-0.037970	0.289539	-1.182986	9.956230
2.670000	-9.558258	2.427504	-1.475002	26.433672	-4.183665	-4.028136	-57.601600	-1.763636	14.037734	2.543735	-4.560031	-12.238769	1.850644	1.368363	0.972681	-0.038234	-0.188475	-0.752454	9.901993
2.680000	-9.473114	2.244550	-1.525670	27.473856	-3.916588	-4.175568	-55.952149	-1.044344	12.904854	2.356546	-5.027803	-11.814840	1.993712	1.380237	0.973602	-0.038429	-0.663681	-0.364225	9.882170
2.690000	-9.352504	2.106649	-1.533156	28.356072	-3.682191	-4.341771	-53.990783	-0.330768	11.723440	2.257054	-5.475470	-11.326786	2.190788	1.392194	0.974308	-0.038544	-1.144899	-0.026908	9.878781
2.700000	-9.187300	2.004567	-1.489037	29.065033	-3.475191	-4.499787	-51.717506	0.353280	10.486181	2.232492	-5.869548	-10.769648	2.468781	1.404185	0.974734	-0.038557	-1.633407	0.251637	9.866958
2.710000	-8.975627	1.930834	-1.390161	29.589370	-3.291027	-4.612903	-49.125957	0.970134	9.195280	2.265449	-6.167598	-10.158191	2.849652	1.416177	0.974808	-0.038438	-2.124238	0.463506	9.825235
2.720000	-8.726795	1.885014	-1.239695	29.929765	-3.130884	-4.646152	-46.212347	1.485822	7.863312	2.341620	-6.333070	-9.519248	3.342949	1.428165	0.974467	-0.038163	-2.606383	0.600087	9.743446
2.730000	-8.459363	1.876291	-1.049502	30.102953	-3.003790	-4.576056	-42.984747	1.886695	6.508188	2.456244	-6.348553	-8.878802	3.939798	1.440173	0.973671	-0.037723	-3.061805	0.652873	9.622999
2.740000	-8.194081	1.922150	-0.839604	30.139218	-2.925504	-4.394979	-39.469501	2.185205	5.145414	2.616555	-6.220587	-8.252105	4.611552	1.452242	0.972417	-0.037130	-3.466178	0.615341	9.469669
2.750000	-7.946505	2.043227	-0.632055	30.075263	-2.915145	-4.109891	-35.713517	2.413464	3.782332	2.838047	-5.975107	-7.641089	5.314770	1.464413	0.970732	-0.036409	-3.848201	0.486051	9.318863
2.760000	-7.723455	2.255508	-0.441448	29.946622	-2.990305	-3.737544	-31.782815	2.609624	2.417535	3.135384	-5.648304	-7.038498	6.001023	1.476720	0.968669	-0.035588	-4.342413	0.267971	9.254429
2.770000	-7.523641	2.563924	-0.268682	29.782823	-3.162787	-3.298926	-27.758748	2.805060	1.044952	3.513804	-5.278694	-6.435554	6.628750	1.489182	0.966298	-0.034690	-0.000000	-0.000000	0.000000
2.780000	-7.341062	2.960204	-0.103948	29.606566	-3.435658	-2.815346	-23.732179	3.017930	-0.340046	3.965268	-4.902755	-5.829200	7.174066	1.501801	0.963695	-0.033732	-0.000000	-0.000000	0.000000
2.790000	-7.169594	3.423655	0.063123	29.435279	-3.800283	-2.306540	-19.794686	3.252707	-1.734951	4.468404	-4.552195	-5.226189	7.636220	1.514562	0.960932	-0.032729	-0.000000	-0.000000	0.000000
2.800000	-7.006517	3.923090	0.235783	29.281970	-4.234765	-1.790254	-16.028256	3.503248	-3.126730	4.990637	-4.249845	-4.644016	8.034933	1.527433	0.958076	-0.031699	-0.000000	-0.000000	0.000000
2.810000	-6.854008	4.420508	0.410206	29.155084	-4.706434	-1.283619	-12.498236	3.757987	-4.491490	5.492698	-4.004936	-4.109682	8.401414	1.540374	0.955179	-0.030662	-0.000000	-0.000000	0.000000
2.820000	-6.719444	4.876987	0.580426	29.059900	-5.177843	-0.806455	-9.253781	4.006702	-5.796537	5.934928	-3.811183	-3.656764	8.767250	1.553344	0.952282	-0.029632	-0.000000	-0.000000	0.000000
2.830000	-6.614300	5.258500	0.745105	29.000685	-5.613497	-0.383296	-6.335205	4.246226	-7.004736	6.282568	-3.648464	-3.321445	9.154467	1.566308	0.949418	-0.028617	-0.000000	-0.000000	0.000000
2.840000	-6.550344	5.539113	0.913085	28.980426	-5.984796	-0.039664	-3.783026	4.479149	-8.081582	6.508027	-3.487083	-3.138290	9.570003	1.579248	0.946611	-0.027607	-0.000000	-0.000000	0.000000
